<svg xmlns="http://www.w3.org/2000/svg" width="40.066" height="31.48" viewBox="0 0 40.066 31.48"><defs><style>.a{fill:#151515;}</style></defs><g transform="translate(0 -54.82)"><g transform="translate(0 54.82)"><path class="a" d="M3.845,64.523q.76.536,4.583,3.186t5.858,4.08q.224.157.95.682t1.207.85q.481.324,1.163.726a6.745,6.745,0,0,0,1.286.6,3.542,3.542,0,0,0,1.118.2h.045a3.545,3.545,0,0,0,1.118-.2,6.752,6.752,0,0,0,1.286-.6q.682-.4,1.163-.726t1.207-.85q.726-.526.95-.682,2.057-1.431,10.463-7.266a10.621,10.621,0,0,0,2.727-2.75,5.9,5.9,0,0,0,1.1-3.376,3.608,3.608,0,0,0-3.577-3.577H3.577A3.193,3.193,0,0,0,.928,55.982,4.513,4.513,0,0,0,0,58.889a5.222,5.222,0,0,0,1.23,3.052A11.1,11.1,0,0,0,3.845,64.523Z" transform="translate(0 -54.82)"/><path class="a" d="M37.829,186.382Q30.5,191.345,26.7,194.1q-1.274.939-2.068,1.464a12.763,12.763,0,0,1-2.113,1.073,6.433,6.433,0,0,1-2.459.548H20.01a6.435,6.435,0,0,1-2.459-.548,12.769,12.769,0,0,1-2.113-1.073q-.793-.525-2.068-1.464-3.019-2.213-11.112-7.714A11.843,11.843,0,0,1,0,184.437v17.752a3.444,3.444,0,0,0,1.051,2.527,3.444,3.444,0,0,0,2.527,1.051H36.488a3.588,3.588,0,0,0,3.577-3.578V184.437A12.328,12.328,0,0,1,37.829,186.382Z" transform="translate(0 -174.287)"/></g></g></svg>