<svg xmlns="http://www.w3.org/2000/svg" width="20" height="20" viewBox="0 0 20 20"><defs><style>.a{fill:#b2b2b2;}</style></defs><path class="a" d="M14.481,0H5.519A5.526,5.526,0,0,0,0,5.519v8.961A5.525,5.525,0,0,0,5.519,20h8.961A5.526,5.526,0,0,0,20,14.481V5.519A5.525,5.525,0,0,0,14.481,0Zm3.745,14.481a3.749,3.749,0,0,1-3.745,3.745H5.519a3.749,3.749,0,0,1-3.745-3.745V5.519A3.749,3.749,0,0,1,5.519,1.774h8.961a3.749,3.749,0,0,1,3.745,3.745v8.961Z"/><path class="a" d="M46.117,40.97a5.149,5.149,0,1,0,5.149,5.149A5.155,5.155,0,0,0,46.117,40.97Zm0,8.525a3.376,3.376,0,1,1,3.376-3.376A3.38,3.38,0,0,1,46.117,49.495Z" transform="translate(-36.117 -36.119)"/><path class="a" d="M120.224,28.251a1.3,1.3,0,1,0,.921.381A1.308,1.308,0,0,0,120.224,28.251Z" transform="translate(-104.855 -24.909)"/></svg>