<?xml version="1.0" encoding="UTF-8"?>
<!DOCTYPE svg PUBLIC "-//W3C//DTD SVG 1.1//EN" "http://www.w3.org/Graphics/SVG/1.1/DTD/svg11.dtd">
<!-- Creator: CorelDRAW 2021 (64-Bit) -->
<svg xmlns="http://www.w3.org/2000/svg" xml:space="preserve" width="243.875mm" height="22.563mm" version="1.1" style="shape-rendering:geometricPrecision; text-rendering:geometricPrecision; image-rendering:optimizeQuality; fill-rule:evenodd; clip-rule:evenodd"
viewBox="0 0 21219.29 1963.18"
 xmlns:xlink="http://www.w3.org/1999/xlink"
 xmlns:xodm="http://www.corel.com/coreldraw/odm/2003">
 <defs>
  <style type="text/css">
   <![CDATA[
    .fil1 {fill:#FFD90D;fill-rule:nonzero}
    .fil0 {fill:white;fill-rule:nonzero}
   ]]>
  </style>
 </defs>
 <g id="Warstwa_x0020_1">
  <metadata id="CorelCorpID_0Corel-Layer"/>
  <g id="_2297684422256">
   <path class="fil0" d="M2995.33 282.97l-180.66 850.9c-18.18,77.84 -59.8,142.88 -125.95,197.23 -67.21,54.35 -138.67,80.97 -216.51,80.93l-4.27 0 267.41 507.76 -639.85 -0.33 -274.87 -507.76 -1147.46 -0.58 -109.04 507.57 -564.13 -0.3 407.28 -1918.27 2366.38 1.21c67.18,0.03 122.63,21.39 165.26,64.07 42.64,42.68 63.94,94.94 63.91,157.85 -0.01,20.26 -2.15,39.46 -7.49,59.72zm-616.54 282.29l-1523.91 -0.77 -60.92 282.56 1523.91 0.77 60.92 -282.56zm3566.38 -562.32l-117.59 564.08 -2086.98 -1.06 -41.69 187.66 1805.44 0.92 -86.59 413.73 -1805.44 -0.92 -41.69 188.74 2088.05 1.06 -120.79 564.07 -2166.95 -1.11c-67.19,-0.03 -119.43,-29.92 -154.59,-90.72 -11.72,-22.4 -34.08,-86.4 -67.08,-191.98l-120.31 -394.64 264.04 -1241.18 2652.18 1.36z"/>
   <path class="fil1" d="M9338.51 1.7l-1648.59 1917.64 -835 -0.43 -835.1 -1918.91 733.69 0.37 609.24 1467.7 1242.06 -1466.75 733.69 0.37zm2120.71 1919.56l-708.09 -0.37 -104.39 -244.26 -1513.24 -0.77 -210.2 244.09 -707.03 -0.36 1648.58 -1917.65 759.29 0.39 835.09 1918.91zm-1035.1 -775.81l-277.99 -654.92 -560.21 654.49 838.2 0.43zm3882.55 -859.68l-74.85 388.13 -564.13 -0.29 22.45 -105.55 -1523.91 -0.78 -169.96 793.32 1523.91 0.78 86.59 -409.45 560.94 0.29 -207.39 970.32 -556.66 -0.28 56.66 -282.57c-16.04,77.84 -56.59,145 -122.73,199.35 -67.22,55.42 -138.68,83.11 -216.53,83.07l-1320.22 -0.67c-70.38,-0.03 -121.56,-29.92 -154.59,-90.72 -11.72,-20.27 -36.21,-84.27 -71.36,-191.98l-123.5 -394.65 203.11 -959.67c18.17,-77.84 59.79,-143.93 127,-199.35 66.15,-54.35 137.61,-82.05 215.46,-82.01l2088.05 1.07c67.18,0.03 122.63,21.39 165.26,64.06 42.64,42.69 63.94,96.01 63.91,161.06 -0.01,18.13 -2.15,36.26 -7.49,56.52z"/>
   <path class="fil0" d="M14616.12 1963.17c-75.72,-0.03 -136.49,-23.54 -184.45,-71.55 -47.97,-48.01 -71.4,-107.74 -71.36,-180.26 0.04,-98.11 40.61,-186.61 120.64,-265.48 80.02,-78.87 169.61,-118.28 270.93,-118.23 74.64,0.03 135.43,23.53 183.39,71.54 47.96,48.02 71.4,107.74 71.36,180.26 -0.05,101.3 -39.55,189.8 -119.57,267.6 -80.03,77.8 -170.69,116.16 -270.94,116.1zm3687.59 -1953.93l-117.59 564.08 -2086.98 -1.06 -41.69 187.67 1805.44 0.91 -86.59 413.73 -1805.44 -0.92 -41.69 188.74 2088.05 1.06 -120.79 564.07 -2166.95 -1.11c-67.19,-0.03 -119.42,-29.92 -154.59,-90.72 -11.71,-22.4 -34.08,-86.4 -67.08,-191.98l-120.31 -394.64 264.03 -1241.17 2652.18 1.35zm2915.58 1.49l-347.42 1635.71c-17.1,77.84 -58.72,144.99 -124.87,199.35 -67.21,55.42 -139.74,83.11 -217.59,83.08l-1876.89 -0.96c-70.38,-0.03 -121.55,-29.92 -154.59,-90.72 -11.72,-20.27 -36.21,-84.28 -71.36,-191.99l-123.49 -394.64 264.03 -1241.17 571.6 0.29 -290.76 1357.4 1523.91 0.77 290.76 -1357.4 556.66 0.29z"/>
  </g>
 </g>
</svg>
